  0
SECTION
  2
HEADER
  9
$ANGBASE
  50
0.0
  9
$ANGDIR
  70
1
  9
$MEASUREMENT
  70
1
  0
ENDSEC
  0
SECTION
  2
TABLES
  0
TABLE
  2
LTYPE
  70
4
  0
LTYPE
  5
40F
  2
CONTINUOUS
  70
0
  3
Solid line
  72
65
  73
0
  40
0.0
  0
LTYPE
  5
410
  2
DASHDOT
 70
0
  3
Dash Dot ____ _ ____ _
 72
65
 73
4
 40
2.0
 49
1.25
 49
-0.25
 49
0.25
 49
-0.25
  0
LTYPE
  5
411
  2
DASHED
 70
0
  3
Dashed __ __ __ __ __
 72
65
 73
2
 40
0.75
 49
0.5
 49
-0.25
  0
LTYPE
  5
43B
  2
DOTTED
 70
0
  3
Dotted .  .  .  .
 72
65
 73
2
 40
0.2
 49
0.0
 49
-0.2
  0
ENDTAB
  0
TABLE
  2
STYLE
  70
4
  0
STYLE
  2
KICAD
  70
0
  40
0
  41
1
  42
1
  50
0
  71
0
  3
isocp.shx
  0
STYLE
  2
KICADB
  70
0
  40
0
  41
1
  42
1
  50
0
  71
0
  3
isocp.shx
  0
STYLE
  2
KICADI
  70
0
  40
0
  41
1
  42
1
  50
15
  71
0
  3
isocp.shx
  0
STYLE
  2
KICADBI
  70
0
  40
0
  41
1
  42
1
  50
15
  71
0
  3
isocp.shx
  0
ENDTAB
  0
TABLE
  2
LAYER
  70
1
  0
LAYER
  2
BLACK
  70
0
  62
7
  6
CONTINUOUS
  0
ENDTAB
  0
ENDSEC
  0
SECTION
  2
ENTITIES
0
LINE
8
BLACK
6
CONTINUOUS
10
127.082
20
-127.454
11
127.274
21
-127.529
0
LINE
8
BLACK
6
CONTINUOUS
10
127.274
20
-127.529
11
127.45
21
-127.637
0
LINE
8
BLACK
6
CONTINUOUS
10
127.45
20
-127.637
11
127.603
21
-127.777
0
LINE
8
BLACK
6
CONTINUOUS
10
127.603
20
-127.777
11
127.727
21
-127.942
0
LINE
8
BLACK
6
CONTINUOUS
10
127.727
20
-127.942
11
127.819
21
-128.127
0
LINE
8
BLACK
6
CONTINUOUS
10
127.819
20
-128.127
11
127.876
21
-128.325
0
LINE
8
BLACK
6
CONTINUOUS
10
127.876
20
-128.325
11
127.895
21
-128.531
0
LINE
8
BLACK
6
CONTINUOUS
10
127.895
20
-128.531
11
127.876
21
-128.737
0
LINE
8
BLACK
6
CONTINUOUS
10
127.876
20
-128.737
11
127.819
21
-128.936
0
LINE
8
BLACK
6
CONTINUOUS
10
127.819
20
-128.936
11
127.727
21
-129.121
0
LINE
8
BLACK
6
CONTINUOUS
10
127.727
20
-129.121
11
127.603
21
-129.286
0
LINE
8
BLACK
6
CONTINUOUS
10
127.603
20
-129.286
11
127.45
21
-129.425
0
LINE
8
BLACK
6
CONTINUOUS
10
127.45
20
-129.425
11
127.274
21
-129.534
0
LINE
8
BLACK
6
CONTINUOUS
10
127.274
20
-129.534
11
127.082
21
-129.608
0
LINE
8
BLACK
6
CONTINUOUS
10
127.082
20
-129.608
11
126.878
21
-129.646
0
LINE
8
BLACK
6
CONTINUOUS
10
126.878
20
-129.646
11
126.672
21
-129.646
0
LINE
8
BLACK
6
CONTINUOUS
10
126.672
20
-129.646
11
126.469
21
-129.608
0
LINE
8
BLACK
6
CONTINUOUS
10
126.469
20
-129.608
11
126.276
21
-129.534
0
LINE
8
BLACK
6
CONTINUOUS
10
126.276
20
-129.534
11
126.1
21
-129.425
0
LINE
8
BLACK
6
CONTINUOUS
10
126.1
20
-129.425
11
125.947
21
-129.286
0
LINE
8
BLACK
6
CONTINUOUS
10
125.947
20
-129.286
11
125.823
21
-129.121
0
LINE
8
BLACK
6
CONTINUOUS
10
125.823
20
-129.121
11
125.731
21
-128.936
0
LINE
8
BLACK
6
CONTINUOUS
10
125.731
20
-128.936
11
125.674
21
-128.737
0
LINE
8
BLACK
6
CONTINUOUS
10
125.674
20
-128.737
11
125.655
21
-128.531
0
LINE
8
BLACK
6
CONTINUOUS
10
125.655
20
-128.531
11
125.674
21
-128.325
0
LINE
8
BLACK
6
CONTINUOUS
10
125.674
20
-128.325
11
125.731
21
-128.127
0
LINE
8
BLACK
6
CONTINUOUS
10
125.731
20
-128.127
11
125.823
21
-127.942
0
LINE
8
BLACK
6
CONTINUOUS
10
125.823
20
-127.942
11
125.947
21
-127.777
0
LINE
8
BLACK
6
CONTINUOUS
10
125.947
20
-127.777
11
126.1
21
-127.637
0
LINE
8
BLACK
6
CONTINUOUS
10
126.1
20
-127.637
11
126.276
21
-127.529
0
LINE
8
BLACK
6
CONTINUOUS
10
126.276
20
-127.529
11
126.469
21
-127.454
0
LINE
8
BLACK
6
CONTINUOUS
10
126.469
20
-127.454
11
126.672
21
-127.416
0
LINE
8
BLACK
6
CONTINUOUS
10
126.672
20
-127.416
11
126.878
21
-127.416
0
LINE
8
BLACK
6
CONTINUOUS
10
126.878
20
-127.416
11
127.082
21
-127.454
0
LINE
8
BLACK
6
CONTINUOUS
10
125.77
20
-128.731
11
125.828
21
-128.923
0
LINE
8
BLACK
6
CONTINUOUS
10
125.828
20
-128.923
11
125.923
21
-129.101
0
LINE
8
BLACK
6
CONTINUOUS
10
125.923
20
-129.101
11
126.05
21
-129.256
0
LINE
8
BLACK
6
CONTINUOUS
10
126.05
20
-129.256
11
126.206
21
-129.383
0
LINE
8
BLACK
6
CONTINUOUS
10
126.206
20
-129.383
11
126.383
21
-129.478
0
LINE
8
BLACK
6
CONTINUOUS
10
126.383
20
-129.478
11
126.575
21
-129.536
0
LINE
8
BLACK
6
CONTINUOUS
10
126.575
20
-129.536
11
126.775
21
-129.556
0
LINE
8
BLACK
6
CONTINUOUS
10
126.775
20
-129.556
11
126.975
21
-129.536
0
LINE
8
BLACK
6
CONTINUOUS
10
126.975
20
-129.536
11
127.167
21
-129.478
0
LINE
8
BLACK
6
CONTINUOUS
10
127.167
20
-129.478
11
127.344
21
-129.383
0
LINE
8
BLACK
6
CONTINUOUS
10
127.344
20
-129.383
11
127.5
21
-129.256
0
LINE
8
BLACK
6
CONTINUOUS
10
127.5
20
-129.256
11
127.627
21
-129.101
0
LINE
8
BLACK
6
CONTINUOUS
10
127.627
20
-129.101
11
127.722
21
-128.923
0
LINE
8
BLACK
6
CONTINUOUS
10
127.722
20
-128.923
11
127.78
21
-128.731
0
LINE
8
BLACK
6
CONTINUOUS
10
127.78
20
-128.731
11
127.8
21
-128.531
0
LINE
8
BLACK
6
CONTINUOUS
10
127.8
20
-128.531
11
127.78
21
-128.331
0
LINE
8
BLACK
6
CONTINUOUS
10
127.78
20
-128.331
11
127.722
21
-128.139
0
LINE
8
BLACK
6
CONTINUOUS
10
127.722
20
-128.139
11
127.627
21
-127.962
0
LINE
8
BLACK
6
CONTINUOUS
10
127.627
20
-127.962
11
127.5
21
-127.806
0
LINE
8
BLACK
6
CONTINUOUS
10
127.5
20
-127.806
11
127.344
21
-127.679
0
LINE
8
BLACK
6
CONTINUOUS
10
127.344
20
-127.679
11
127.167
21
-127.584
0
LINE
8
BLACK
6
CONTINUOUS
10
127.167
20
-127.584
11
126.975
21
-127.526
0
LINE
8
BLACK
6
CONTINUOUS
10
126.975
20
-127.526
11
126.775
21
-127.506
0
LINE
8
BLACK
6
CONTINUOUS
10
126.775
20
-127.506
11
126.575
21
-127.526
0
LINE
8
BLACK
6
CONTINUOUS
10
126.575
20
-127.526
11
126.383
21
-127.584
0
LINE
8
BLACK
6
CONTINUOUS
10
126.383
20
-127.584
11
126.206
21
-127.679
0
LINE
8
BLACK
6
CONTINUOUS
10
126.206
20
-127.679
11
126.05
21
-127.806
0
LINE
8
BLACK
6
CONTINUOUS
10
126.05
20
-127.806
11
125.923
21
-127.962
0
LINE
8
BLACK
6
CONTINUOUS
10
125.923
20
-127.962
11
125.828
21
-128.139
0
LINE
8
BLACK
6
CONTINUOUS
10
125.828
20
-128.139
11
125.77
21
-128.331
0
LINE
8
BLACK
6
CONTINUOUS
10
125.77
20
-128.331
11
125.75
21
-128.531
0
LINE
8
BLACK
6
CONTINUOUS
10
125.75
20
-128.531
11
125.77
21
-128.731
0
LINE
8
BLACK
6
CONTINUOUS
10
146.925
20
-127.454
11
147.118
21
-127.529
0
LINE
8
BLACK
6
CONTINUOUS
10
147.118
20
-127.529
11
147.294
21
-127.637
0
LINE
8
BLACK
6
CONTINUOUS
10
147.294
20
-127.637
11
147.446
21
-127.777
0
LINE
8
BLACK
6
CONTINUOUS
10
147.446
20
-127.777
11
147.571
21
-127.942
0
LINE
8
BLACK
6
CONTINUOUS
10
147.571
20
-127.942
11
147.663
21
-128.127
0
LINE
8
BLACK
6
CONTINUOUS
10
147.663
20
-128.127
11
147.72
21
-128.325
0
LINE
8
BLACK
6
CONTINUOUS
10
147.72
20
-128.325
11
147.739
21
-128.531
0
LINE
8
BLACK
6
CONTINUOUS
10
147.739
20
-128.531
11
147.72
21
-128.737
0
LINE
8
BLACK
6
CONTINUOUS
10
147.72
20
-128.737
11
147.663
21
-128.936
0
LINE
8
BLACK
6
CONTINUOUS
10
147.663
20
-128.936
11
147.571
21
-129.121
0
LINE
8
BLACK
6
CONTINUOUS
10
147.571
20
-129.121
11
147.446
21
-129.286
0
LINE
8
BLACK
6
CONTINUOUS
10
147.446
20
-129.286
11
147.294
21
-129.425
0
LINE
8
BLACK
6
CONTINUOUS
10
147.294
20
-129.425
11
147.118
21
-129.534
0
LINE
8
BLACK
6
CONTINUOUS
10
147.118
20
-129.534
11
146.925
21
-129.608
0
LINE
8
BLACK
6
CONTINUOUS
10
146.925
20
-129.608
11
146.722
21
-129.646
0
LINE
8
BLACK
6
CONTINUOUS
10
146.722
20
-129.646
11
146.515
21
-129.646
0
LINE
8
BLACK
6
CONTINUOUS
10
146.515
20
-129.646
11
146.312
21
-129.608
0
LINE
8
BLACK
6
CONTINUOUS
10
146.312
20
-129.608
11
146.12
21
-129.534
0
LINE
8
BLACK
6
CONTINUOUS
10
146.12
20
-129.534
11
145.944
21
-129.425
0
LINE
8
BLACK
6
CONTINUOUS
10
145.944
20
-129.425
11
145.791
21
-129.286
0
LINE
8
BLACK
6
CONTINUOUS
10
145.791
20
-129.286
11
145.667
21
-129.121
0
LINE
8
BLACK
6
CONTINUOUS
10
145.667
20
-129.121
11
145.574
21
-128.936
0
LINE
8
BLACK
6
CONTINUOUS
10
145.574
20
-128.936
11
145.518
21
-128.737
0
LINE
8
BLACK
6
CONTINUOUS
10
145.518
20
-128.737
11
145.499
21
-128.531
0
LINE
8
BLACK
6
CONTINUOUS
10
145.499
20
-128.531
11
145.518
21
-128.325
0
LINE
8
BLACK
6
CONTINUOUS
10
145.518
20
-128.325
11
145.574
21
-128.127
0
LINE
8
BLACK
6
CONTINUOUS
10
145.574
20
-128.127
11
145.667
21
-127.942
0
LINE
8
BLACK
6
CONTINUOUS
10
145.667
20
-127.942
11
145.791
21
-127.777
0
LINE
8
BLACK
6
CONTINUOUS
10
145.791
20
-127.777
11
145.944
21
-127.637
0
LINE
8
BLACK
6
CONTINUOUS
10
145.944
20
-127.637
11
146.12
21
-127.529
0
LINE
8
BLACK
6
CONTINUOUS
10
146.12
20
-127.529
11
146.312
21
-127.454
0
LINE
8
BLACK
6
CONTINUOUS
10
146.312
20
-127.454
11
146.515
21
-127.416
0
LINE
8
BLACK
6
CONTINUOUS
10
146.515
20
-127.416
11
146.722
21
-127.416
0
LINE
8
BLACK
6
CONTINUOUS
10
146.722
20
-127.416
11
146.925
21
-127.454
0
LINE
8
BLACK
6
CONTINUOUS
10
145.614
20
-128.731
11
145.672
21
-128.923
0
LINE
8
BLACK
6
CONTINUOUS
10
145.672
20
-128.923
11
145.767
21
-129.101
0
LINE
8
BLACK
6
CONTINUOUS
10
145.767
20
-129.101
11
145.894
21
-129.256
0
LINE
8
BLACK
6
CONTINUOUS
10
145.894
20
-129.256
11
146.049
21
-129.383
0
LINE
8
BLACK
6
CONTINUOUS
10
146.049
20
-129.383
11
146.227
21
-129.478
0
LINE
8
BLACK
6
CONTINUOUS
10
146.227
20
-129.478
11
146.419
21
-129.536
0
LINE
8
BLACK
6
CONTINUOUS
10
146.419
20
-129.536
11
146.619
21
-129.556
0
LINE
8
BLACK
6
CONTINUOUS
10
146.619
20
-129.556
11
146.819
21
-129.536
0
LINE
8
BLACK
6
CONTINUOUS
10
146.819
20
-129.536
11
147.011
21
-129.478
0
LINE
8
BLACK
6
CONTINUOUS
10
147.011
20
-129.478
11
147.188
21
-129.383
0
LINE
8
BLACK
6
CONTINUOUS
10
147.188
20
-129.383
11
147.344
21
-129.256
0
LINE
8
BLACK
6
CONTINUOUS
10
147.344
20
-129.256
11
147.471
21
-129.101
0
LINE
8
BLACK
6
CONTINUOUS
10
147.471
20
-129.101
11
147.566
21
-128.923
0
LINE
8
BLACK
6
CONTINUOUS
10
147.566
20
-128.923
11
147.624
21
-128.731
0
LINE
8
BLACK
6
CONTINUOUS
10
147.624
20
-128.731
11
147.644
21
-128.531
0
LINE
8
BLACK
6
CONTINUOUS
10
147.644
20
-128.531
11
147.624
21
-128.331
0
LINE
8
BLACK
6
CONTINUOUS
10
147.624
20
-128.331
11
147.566
21
-128.139
0
LINE
8
BLACK
6
CONTINUOUS
10
147.566
20
-128.139
11
147.471
21
-127.962
0
LINE
8
BLACK
6
CONTINUOUS
10
147.471
20
-127.962
11
147.344
21
-127.806
0
LINE
8
BLACK
6
CONTINUOUS
10
147.344
20
-127.806
11
147.188
21
-127.679
0
LINE
8
BLACK
6
CONTINUOUS
10
147.188
20
-127.679
11
147.011
21
-127.584
0
LINE
8
BLACK
6
CONTINUOUS
10
147.011
20
-127.584
11
146.819
21
-127.526
0
LINE
8
BLACK
6
CONTINUOUS
10
146.819
20
-127.526
11
146.619
21
-127.506
0
LINE
8
BLACK
6
CONTINUOUS
10
146.619
20
-127.506
11
146.419
21
-127.526
0
LINE
8
BLACK
6
CONTINUOUS
10
146.419
20
-127.526
11
146.227
21
-127.584
0
LINE
8
BLACK
6
CONTINUOUS
10
146.227
20
-127.584
11
146.049
21
-127.679
0
LINE
8
BLACK
6
CONTINUOUS
10
146.049
20
-127.679
11
145.894
21
-127.806
0
LINE
8
BLACK
6
CONTINUOUS
10
145.894
20
-127.806
11
145.767
21
-127.962
0
LINE
8
BLACK
6
CONTINUOUS
10
145.767
20
-127.962
11
145.672
21
-128.139
0
LINE
8
BLACK
6
CONTINUOUS
10
145.672
20
-128.139
11
145.614
21
-128.331
0
LINE
8
BLACK
6
CONTINUOUS
10
145.614
20
-128.331
11
145.594
21
-128.531
0
LINE
8
BLACK
6
CONTINUOUS
10
145.594
20
-128.531
11
145.614
21
-128.731
0
LINE
8
BLACK
6
CONTINUOUS
10
127.082
20
-69.5102
11
127.274
21
-69.5849
0
LINE
8
BLACK
6
CONTINUOUS
10
127.274
20
-69.5849
11
127.45
21
-69.6937
0
LINE
8
BLACK
6
CONTINUOUS
10
127.45
20
-69.6937
11
127.603
21
-69.8329
0
LINE
8
BLACK
6
CONTINUOUS
10
127.603
20
-69.8329
11
127.727
21
-69.9978
0
LINE
8
BLACK
6
CONTINUOUS
10
127.727
20
-69.9978
11
127.819
21
-70.1829
0
LINE
8
BLACK
6
CONTINUOUS
10
127.819
20
-70.1829
11
127.876
21
-70.3817
0
LINE
8
BLACK
6
CONTINUOUS
10
127.876
20
-70.3817
11
127.895
21
-70.5874
0
LINE
8
BLACK
6
CONTINUOUS
10
127.895
20
-70.5874
11
127.876
21
-70.7932
0
LINE
8
BLACK
6
CONTINUOUS
10
127.876
20
-70.7932
11
127.819
21
-70.992
0
LINE
8
BLACK
6
CONTINUOUS
10
127.819
20
-70.992
11
127.727
21
-71.1771
0
LINE
8
BLACK
6
CONTINUOUS
10
127.727
20
-71.1771
11
127.603
21
-71.342
0
LINE
8
BLACK
6
CONTINUOUS
10
127.603
20
-71.342
11
127.45
21
-71.4812
0
LINE
8
BLACK
6
CONTINUOUS
10
127.45
20
-71.4812
11
127.274
21
-71.59
0
LINE
8
BLACK
6
CONTINUOUS
10
127.274
20
-71.59
11
127.082
21
-71.6647
0
LINE
8
BLACK
6
CONTINUOUS
10
127.082
20
-71.6647
11
126.878
21
-71.7027
0
LINE
8
BLACK
6
CONTINUOUS
10
126.878
20
-71.7027
11
126.672
21
-71.7027
0
LINE
8
BLACK
6
CONTINUOUS
10
126.672
20
-71.7027
11
126.469
21
-71.6647
0
LINE
8
BLACK
6
CONTINUOUS
10
126.469
20
-71.6647
11
126.276
21
-71.59
0
LINE
8
BLACK
6
CONTINUOUS
10
126.276
20
-71.59
11
126.1
21
-71.4812
0
LINE
8
BLACK
6
CONTINUOUS
10
126.1
20
-71.4812
11
125.947
21
-71.342
0
LINE
8
BLACK
6
CONTINUOUS
10
125.947
20
-71.342
11
125.823
21
-71.1771
0
LINE
8
BLACK
6
CONTINUOUS
10
125.823
20
-71.1771
11
125.731
21
-70.992
0
LINE
8
BLACK
6
CONTINUOUS
10
125.731
20
-70.992
11
125.674
21
-70.7932
0
LINE
8
BLACK
6
CONTINUOUS
10
125.674
20
-70.7932
11
125.655
21
-70.5874
0
LINE
8
BLACK
6
CONTINUOUS
10
125.655
20
-70.5874
11
125.674
21
-70.3817
0
LINE
8
BLACK
6
CONTINUOUS
10
125.674
20
-70.3817
11
125.731
21
-70.1829
0
LINE
8
BLACK
6
CONTINUOUS
10
125.731
20
-70.1829
11
125.823
21
-69.9978
0
LINE
8
BLACK
6
CONTINUOUS
10
125.823
20
-69.9978
11
125.947
21
-69.8329
0
LINE
8
BLACK
6
CONTINUOUS
10
125.947
20
-69.8329
11
126.1
21
-69.6937
0
LINE
8
BLACK
6
CONTINUOUS
10
126.1
20
-69.6937
11
126.276
21
-69.5849
0
LINE
8
BLACK
6
CONTINUOUS
10
126.276
20
-69.5849
11
126.469
21
-69.5102
0
LINE
8
BLACK
6
CONTINUOUS
10
126.469
20
-69.5102
11
126.672
21
-69.4722
0
LINE
8
BLACK
6
CONTINUOUS
10
126.672
20
-69.4722
11
126.878
21
-69.4722
0
LINE
8
BLACK
6
CONTINUOUS
10
126.878
20
-69.4722
11
127.082
21
-69.5102
0
LINE
8
BLACK
6
CONTINUOUS
10
125.77
20
-70.7874
11
125.828
21
-70.9797
0
LINE
8
BLACK
6
CONTINUOUS
10
125.828
20
-70.9797
11
125.923
21
-71.1569
0
LINE
8
BLACK
6
CONTINUOUS
10
125.923
20
-71.1569
11
126.05
21
-71.3122
0
LINE
8
BLACK
6
CONTINUOUS
10
126.05
20
-71.3122
11
126.206
21
-71.4397
0
LINE
8
BLACK
6
CONTINUOUS
10
126.206
20
-71.4397
11
126.383
21
-71.5344
0
LINE
8
BLACK
6
CONTINUOUS
10
126.383
20
-71.5344
11
126.575
21
-71.5927
0
LINE
8
BLACK
6
CONTINUOUS
10
126.575
20
-71.5927
11
126.775
21
-71.6124
0
LINE
8
BLACK
6
CONTINUOUS
10
126.775
20
-71.6124
11
126.975
21
-71.5927
0
LINE
8
BLACK
6
CONTINUOUS
10
126.975
20
-71.5927
11
127.167
21
-71.5344
0
LINE
8
BLACK
6
CONTINUOUS
10
127.167
20
-71.5344
11
127.344
21
-71.4397
0
LINE
8
BLACK
6
CONTINUOUS
10
127.344
20
-71.4397
11
127.5
21
-71.3122
0
LINE
8
BLACK
6
CONTINUOUS
10
127.5
20
-71.3122
11
127.627
21
-71.1569
0
LINE
8
BLACK
6
CONTINUOUS
10
127.627
20
-71.1569
11
127.722
21
-70.9797
0
LINE
8
BLACK
6
CONTINUOUS
10
127.722
20
-70.9797
11
127.78
21
-70.7874
0
LINE
8
BLACK
6
CONTINUOUS
10
127.78
20
-70.7874
11
127.8
21
-70.5874
0
LINE
8
BLACK
6
CONTINUOUS
10
127.8
20
-70.5874
11
127.78
21
-70.3875
0
LINE
8
BLACK
6
CONTINUOUS
10
127.78
20
-70.3875
11
127.722
21
-70.1952
0
LINE
8
BLACK
6
CONTINUOUS
10
127.722
20
-70.1952
11
127.627
21
-70.018
0
LINE
8
BLACK
6
CONTINUOUS
10
127.627
20
-70.018
11
127.5
21
-69.8627
0
LINE
8
BLACK
6
CONTINUOUS
10
127.5
20
-69.8627
11
127.344
21
-69.7352
0
LINE
8
BLACK
6
CONTINUOUS
10
127.344
20
-69.7352
11
127.167
21
-69.6405
0
LINE
8
BLACK
6
CONTINUOUS
10
127.167
20
-69.6405
11
126.975
21
-69.5822
0
LINE
8
BLACK
6
CONTINUOUS
10
126.975
20
-69.5822
11
126.775
21
-69.5625
0
LINE
8
BLACK
6
CONTINUOUS
10
126.775
20
-69.5625
11
126.575
21
-69.5822
0
LINE
8
BLACK
6
CONTINUOUS
10
126.575
20
-69.5822
11
126.383
21
-69.6405
0
LINE
8
BLACK
6
CONTINUOUS
10
126.383
20
-69.6405
11
126.206
21
-69.7352
0
LINE
8
BLACK
6
CONTINUOUS
10
126.206
20
-69.7352
11
126.05
21
-69.8627
0
LINE
8
BLACK
6
CONTINUOUS
10
126.05
20
-69.8627
11
125.923
21
-70.018
0
LINE
8
BLACK
6
CONTINUOUS
10
125.923
20
-70.018
11
125.828
21
-70.1952
0
LINE
8
BLACK
6
CONTINUOUS
10
125.828
20
-70.1952
11
125.77
21
-70.3875
0
LINE
8
BLACK
6
CONTINUOUS
10
125.77
20
-70.3875
11
125.75
21
-70.5874
0
LINE
8
BLACK
6
CONTINUOUS
10
125.75
20
-70.5874
11
125.77
21
-70.7874
0
LINE
8
BLACK
6
CONTINUOUS
10
146.925
20
-69.5102
11
147.118
21
-69.5849
0
LINE
8
BLACK
6
CONTINUOUS
10
147.118
20
-69.5849
11
147.294
21
-69.6937
0
LINE
8
BLACK
6
CONTINUOUS
10
147.294
20
-69.6937
11
147.446
21
-69.8329
0
LINE
8
BLACK
6
CONTINUOUS
10
147.446
20
-69.8329
11
147.571
21
-69.9978
0
LINE
8
BLACK
6
CONTINUOUS
10
147.571
20
-69.9978
11
147.663
21
-70.1829
0
LINE
8
BLACK
6
CONTINUOUS
10
147.663
20
-70.1829
11
147.72
21
-70.3817
0
LINE
8
BLACK
6
CONTINUOUS
10
147.72
20
-70.3817
11
147.739
21
-70.5874
0
LINE
8
BLACK
6
CONTINUOUS
10
147.739
20
-70.5874
11
147.72
21
-70.7932
0
LINE
8
BLACK
6
CONTINUOUS
10
147.72
20
-70.7932
11
147.663
21
-70.992
0
LINE
8
BLACK
6
CONTINUOUS
10
147.663
20
-70.992
11
147.571
21
-71.1771
0
LINE
8
BLACK
6
CONTINUOUS
10
147.571
20
-71.1771
11
147.446
21
-71.342
0
LINE
8
BLACK
6
CONTINUOUS
10
147.446
20
-71.342
11
147.294
21
-71.4812
0
LINE
8
BLACK
6
CONTINUOUS
10
147.294
20
-71.4812
11
147.118
21
-71.59
0
LINE
8
BLACK
6
CONTINUOUS
10
147.118
20
-71.59
11
146.925
21
-71.6647
0
LINE
8
BLACK
6
CONTINUOUS
10
146.925
20
-71.6647
11
146.722
21
-71.7027
0
LINE
8
BLACK
6
CONTINUOUS
10
146.722
20
-71.7027
11
146.515
21
-71.7027
0
LINE
8
BLACK
6
CONTINUOUS
10
146.515
20
-71.7027
11
146.312
21
-71.6647
0
LINE
8
BLACK
6
CONTINUOUS
10
146.312
20
-71.6647
11
146.12
21
-71.59
0
LINE
8
BLACK
6
CONTINUOUS
10
146.12
20
-71.59
11
145.944
21
-71.4812
0
LINE
8
BLACK
6
CONTINUOUS
10
145.944
20
-71.4812
11
145.791
21
-71.342
0
LINE
8
BLACK
6
CONTINUOUS
10
145.791
20
-71.342
11
145.667
21
-71.1771
0
LINE
8
BLACK
6
CONTINUOUS
10
145.667
20
-71.1771
11
145.574
21
-70.992
0
LINE
8
BLACK
6
CONTINUOUS
10
145.574
20
-70.992
11
145.518
21
-70.7932
0
LINE
8
BLACK
6
CONTINUOUS
10
145.518
20
-70.7932
11
145.499
21
-70.5874
0
LINE
8
BLACK
6
CONTINUOUS
10
145.499
20
-70.5874
11
145.518
21
-70.3817
0
LINE
8
BLACK
6
CONTINUOUS
10
145.518
20
-70.3817
11
145.574
21
-70.1829
0
LINE
8
BLACK
6
CONTINUOUS
10
145.574
20
-70.1829
11
145.667
21
-69.9978
0
LINE
8
BLACK
6
CONTINUOUS
10
145.667
20
-69.9978
11
145.791
21
-69.8329
0
LINE
8
BLACK
6
CONTINUOUS
10
145.791
20
-69.8329
11
145.944
21
-69.6937
0
LINE
8
BLACK
6
CONTINUOUS
10
145.944
20
-69.6937
11
146.12
21
-69.5849
0
LINE
8
BLACK
6
CONTINUOUS
10
146.12
20
-69.5849
11
146.312
21
-69.5102
0
LINE
8
BLACK
6
CONTINUOUS
10
146.312
20
-69.5102
11
146.515
21
-69.4722
0
LINE
8
BLACK
6
CONTINUOUS
10
146.515
20
-69.4722
11
146.722
21
-69.4722
0
LINE
8
BLACK
6
CONTINUOUS
10
146.722
20
-69.4722
11
146.925
21
-69.5102
0
LINE
8
BLACK
6
CONTINUOUS
10
145.614
20
-70.7874
11
145.672
21
-70.9797
0
LINE
8
BLACK
6
CONTINUOUS
10
145.672
20
-70.9797
11
145.767
21
-71.1569
0
LINE
8
BLACK
6
CONTINUOUS
10
145.767
20
-71.1569
11
145.894
21
-71.3122
0
LINE
8
BLACK
6
CONTINUOUS
10
145.894
20
-71.3122
11
146.049
21
-71.4397
0
LINE
8
BLACK
6
CONTINUOUS
10
146.049
20
-71.4397
11
146.227
21
-71.5344
0
LINE
8
BLACK
6
CONTINUOUS
10
146.227
20
-71.5344
11
146.419
21
-71.5927
0
LINE
8
BLACK
6
CONTINUOUS
10
146.419
20
-71.5927
11
146.619
21
-71.6124
0
LINE
8
BLACK
6
CONTINUOUS
10
146.619
20
-71.6124
11
146.819
21
-71.5927
0
LINE
8
BLACK
6
CONTINUOUS
10
146.819
20
-71.5927
11
147.011
21
-71.5344
0
LINE
8
BLACK
6
CONTINUOUS
10
147.011
20
-71.5344
11
147.188
21
-71.4397
0
LINE
8
BLACK
6
CONTINUOUS
10
147.188
20
-71.4397
11
147.344
21
-71.3122
0
LINE
8
BLACK
6
CONTINUOUS
10
147.344
20
-71.3122
11
147.471
21
-71.1569
0
LINE
8
BLACK
6
CONTINUOUS
10
147.471
20
-71.1569
11
147.566
21
-70.9797
0
LINE
8
BLACK
6
CONTINUOUS
10
147.566
20
-70.9797
11
147.624
21
-70.7874
0
LINE
8
BLACK
6
CONTINUOUS
10
147.624
20
-70.7874
11
147.644
21
-70.5874
0
LINE
8
BLACK
6
CONTINUOUS
10
147.644
20
-70.5874
11
147.624
21
-70.3875
0
LINE
8
BLACK
6
CONTINUOUS
10
147.624
20
-70.3875
11
147.566
21
-70.1952
0
LINE
8
BLACK
6
CONTINUOUS
10
147.566
20
-70.1952
11
147.471
21
-70.018
0
LINE
8
BLACK
6
CONTINUOUS
10
147.471
20
-70.018
11
147.344
21
-69.8627
0
LINE
8
BLACK
6
CONTINUOUS
10
147.344
20
-69.8627
11
147.188
21
-69.7352
0
LINE
8
BLACK
6
CONTINUOUS
10
147.188
20
-69.7352
11
147.011
21
-69.6405
0
LINE
8
BLACK
6
CONTINUOUS
10
147.011
20
-69.6405
11
146.819
21
-69.5822
0
LINE
8
BLACK
6
CONTINUOUS
10
146.819
20
-69.5822
11
146.619
21
-69.5625
0
LINE
8
BLACK
6
CONTINUOUS
10
146.619
20
-69.5625
11
146.419
21
-69.5822
0
LINE
8
BLACK
6
CONTINUOUS
10
146.419
20
-69.5822
11
146.227
21
-69.6405
0
LINE
8
BLACK
6
CONTINUOUS
10
146.227
20
-69.6405
11
146.049
21
-69.7352
0
LINE
8
BLACK
6
CONTINUOUS
10
146.049
20
-69.7352
11
145.894
21
-69.8627
0
LINE
8
BLACK
6
CONTINUOUS
10
145.894
20
-69.8627
11
145.767
21
-70.018
0
LINE
8
BLACK
6
CONTINUOUS
10
145.767
20
-70.018
11
145.672
21
-70.1952
0
LINE
8
BLACK
6
CONTINUOUS
10
145.672
20
-70.1952
11
145.614
21
-70.3875
0
LINE
8
BLACK
6
CONTINUOUS
10
145.614
20
-70.3875
11
145.594
21
-70.5874
0
LINE
8
BLACK
6
CONTINUOUS
10
145.594
20
-70.5874
11
145.614
21
-70.7874
0
LINE
8
BLACK
6
CONTINUOUS
10
129.156
20
-68.1562
11
129.321
21
-68.1724
0
LINE
8
BLACK
6
CONTINUOUS
10
129.321
20
-68.1724
11
129.479
21
-68.2204
0
LINE
8
BLACK
6
CONTINUOUS
10
129.479
20
-68.2204
11
129.625
21
-68.2984
0
LINE
8
BLACK
6
CONTINUOUS
10
129.625
20
-68.2984
11
129.753
21
-68.4033
0
LINE
8
BLACK
6
CONTINUOUS
10
129.753
20
-68.4033
11
129.858
21
-68.5312
0
LINE
8
BLACK
6
CONTINUOUS
10
129.858
20
-68.5312
11
129.936
21
-68.6771
0
LINE
8
BLACK
6
CONTINUOUS
10
129.936
20
-68.6771
11
129.984
21
-68.8353
0
LINE
8
BLACK
6
CONTINUOUS
10
129.984
20
-68.8353
11
130
21
-68.9998
0
LINE
8
BLACK
6
CONTINUOUS
10
130
20
-68.9998
11
130
21
-68.9999
0
LINE
8
BLACK
6
CONTINUOUS
10
130
20
-68.9999
11
130
21
-72.9187
0
LINE
8
BLACK
6
CONTINUOUS
10
130
20
-72.9187
11
143.394
21
-72.9187
0
LINE
8
BLACK
6
CONTINUOUS
10
143.394
20
-72.9187
11
143.394
21
-68.9999
0
LINE
8
BLACK
6
CONTINUOUS
10
143.394
20
-68.9999
11
143.394
21
-68.9999
0
LINE
8
BLACK
6
CONTINUOUS
10
143.394
20
-68.9999
11
143.394
21
-68.9999
0
LINE
8
BLACK
6
CONTINUOUS
10
143.394
20
-68.9999
11
143.41
21
-68.8353
0
LINE
8
BLACK
6
CONTINUOUS
10
143.41
20
-68.8353
11
143.458
21
-68.6771
0
LINE
8
BLACK
6
CONTINUOUS
10
143.458
20
-68.6771
11
143.536
21
-68.5312
0
LINE
8
BLACK
6
CONTINUOUS
10
143.536
20
-68.5312
11
143.641
21
-68.4033
0
LINE
8
BLACK
6
CONTINUOUS
10
143.641
20
-68.4033
11
143.769
21
-68.2984
0
LINE
8
BLACK
6
CONTINUOUS
10
143.769
20
-68.2984
11
143.915
21
-68.2204
0
LINE
8
BLACK
6
CONTINUOUS
10
143.915
20
-68.2204
11
144.073
21
-68.1724
0
LINE
8
BLACK
6
CONTINUOUS
10
144.073
20
-68.1724
11
144.238
21
-68.1562
0
LINE
8
BLACK
6
CONTINUOUS
10
144.238
20
-68.1562
11
144.238
21
-68.1562
0
LINE
8
BLACK
6
CONTINUOUS
10
144.238
20
-68.1562
11
144.238
21
-68.1562
0
LINE
8
BLACK
6
CONTINUOUS
10
144.238
20
-68.1562
11
148.4
21
-68.1562
0
LINE
8
BLACK
6
CONTINUOUS
10
148.4
20
-68.1562
11
148.4
21
-68.1562
0
LINE
8
BLACK
6
CONTINUOUS
10
148.4
20
-68.1562
11
148.4
21
-68.1562
0
LINE
8
BLACK
6
CONTINUOUS
10
148.4
20
-68.1562
11
148.565
21
-68.1724
0
LINE
8
BLACK
6
CONTINUOUS
10
148.565
20
-68.1724
11
148.723
21
-68.2205
0
LINE
8
BLACK
6
CONTINUOUS
10
148.723
20
-68.2205
11
148.869
21
-68.2984
0
LINE
8
BLACK
6
CONTINUOUS
10
148.869
20
-68.2984
11
148.997
21
-68.4034
0
LINE
8
BLACK
6
CONTINUOUS
10
148.997
20
-68.4034
11
149.101
21
-68.5312
0
LINE
8
BLACK
6
CONTINUOUS
10
149.101
20
-68.5312
11
149.179
21
-68.6771
0
LINE
8
BLACK
6
CONTINUOUS
10
149.179
20
-68.6771
11
149.227
21
-68.8353
0
LINE
8
BLACK
6
CONTINUOUS
10
149.227
20
-68.8353
11
149.244
21
-68.9998
0
LINE
8
BLACK
6
CONTINUOUS
10
149.244
20
-68.9998
11
149.244
21
-68.9999
0
LINE
8
BLACK
6
CONTINUOUS
10
149.244
20
-68.9999
11
149.25
21
-131.7
0
LINE
8
BLACK
6
CONTINUOUS
10
149.25
20
-131.7
11
149.25
21
-131.7
0
LINE
8
BLACK
6
CONTINUOUS
10
149.25
20
-131.7
11
149.25
21
-131.7
0
LINE
8
BLACK
6
CONTINUOUS
10
149.25
20
-131.7
11
149.234
21
-131.865
0
LINE
8
BLACK
6
CONTINUOUS
10
149.234
20
-131.865
11
149.186
21
-132.023
0
LINE
8
BLACK
6
CONTINUOUS
10
149.186
20
-132.023
11
149.108
21
-132.169
0
LINE
8
BLACK
6
CONTINUOUS
10
149.108
20
-132.169
11
149.003
21
-132.297
0
LINE
8
BLACK
6
CONTINUOUS
10
149.003
20
-132.297
11
148.875
21
-132.401
0
LINE
8
BLACK
6
CONTINUOUS
10
148.875
20
-132.401
11
148.729
21
-132.479
0
LINE
8
BLACK
6
CONTINUOUS
10
148.729
20
-132.479
11
148.571
21
-132.527
0
LINE
8
BLACK
6
CONTINUOUS
10
148.571
20
-132.527
11
148.406
21
-132.544
0
LINE
8
BLACK
6
CONTINUOUS
10
148.406
20
-132.544
11
148.406
21
-132.544
0
LINE
8
BLACK
6
CONTINUOUS
10
148.406
20
-132.544
11
125.188
21
-132.55
0
LINE
8
BLACK
6
CONTINUOUS
10
125.188
20
-132.55
11
125.188
21
-132.55
0
LINE
8
BLACK
6
CONTINUOUS
10
125.188
20
-132.55
11
125.188
21
-132.55
0
LINE
8
BLACK
6
CONTINUOUS
10
125.188
20
-132.55
11
125.023
21
-132.534
0
LINE
8
BLACK
6
CONTINUOUS
10
125.023
20
-132.534
11
124.865
21
-132.486
0
LINE
8
BLACK
6
CONTINUOUS
10
124.865
20
-132.486
11
124.719
21
-132.408
0
LINE
8
BLACK
6
CONTINUOUS
10
124.719
20
-132.408
11
124.591
21
-132.303
0
LINE
8
BLACK
6
CONTINUOUS
10
124.591
20
-132.303
11
124.486
21
-132.175
0
LINE
8
BLACK
6
CONTINUOUS
10
124.486
20
-132.175
11
124.408
21
-132.029
0
LINE
8
BLACK
6
CONTINUOUS
10
124.408
20
-132.029
11
124.36
21
-131.871
0
LINE
8
BLACK
6
CONTINUOUS
10
124.36
20
-131.871
11
124.344
21
-131.706
0
LINE
8
BLACK
6
CONTINUOUS
10
124.344
20
-131.706
11
124.344
21
-131.706
0
LINE
8
BLACK
6
CONTINUOUS
10
124.344
20
-131.706
11
124.344
21
-131.706
0
LINE
8
BLACK
6
CONTINUOUS
10
124.344
20
-131.706
11
124.344
21
-131.706
0
LINE
8
BLACK
6
CONTINUOUS
10
124.344
20
-131.706
11
124.344
21
-68.9999
0
LINE
8
BLACK
6
CONTINUOUS
10
124.344
20
-68.9999
11
124.344
21
-68.9999
0
LINE
8
BLACK
6
CONTINUOUS
10
124.344
20
-68.9999
11
124.344
21
-68.9999
0
LINE
8
BLACK
6
CONTINUOUS
10
124.344
20
-68.9999
11
124.36
21
-68.8353
0
LINE
8
BLACK
6
CONTINUOUS
10
124.36
20
-68.8353
11
124.408
21
-68.6771
0
LINE
8
BLACK
6
CONTINUOUS
10
124.408
20
-68.6771
11
124.486
21
-68.5312
0
LINE
8
BLACK
6
CONTINUOUS
10
124.486
20
-68.5312
11
124.591
21
-68.4033
0
LINE
8
BLACK
6
CONTINUOUS
10
124.591
20
-68.4033
11
124.719
21
-68.2984
0
LINE
8
BLACK
6
CONTINUOUS
10
124.719
20
-68.2984
11
124.865
21
-68.2204
0
LINE
8
BLACK
6
CONTINUOUS
10
124.865
20
-68.2204
11
125.023
21
-68.1724
0
LINE
8
BLACK
6
CONTINUOUS
10
125.023
20
-68.1724
11
125.188
21
-68.1562
0
LINE
8
BLACK
6
CONTINUOUS
10
125.188
20
-68.1562
11
125.188
21
-68.1562
0
LINE
8
BLACK
6
CONTINUOUS
10
125.188
20
-68.1562
11
125.188
21
-68.1562
0
LINE
8
BLACK
6
CONTINUOUS
10
125.188
20
-68.1562
11
129.156
21
-68.1562
0
LINE
8
BLACK
6
CONTINUOUS
10
125.188
20
-68.2562
11
125.114
21
-68.2562
0
LINE
8
BLACK
6
CONTINUOUS
10
125.114
20
-68.2562
11
124.971
21
-68.2848
0
LINE
8
BLACK
6
CONTINUOUS
10
124.971
20
-68.2848
11
124.835
21
-68.3409
0
LINE
8
BLACK
6
CONTINUOUS
10
124.835
20
-68.3409
11
124.713
21
-68.4223
0
LINE
8
BLACK
6
CONTINUOUS
10
124.713
20
-68.4223
11
124.61
21
-68.5259
0
LINE
8
BLACK
6
CONTINUOUS
10
124.61
20
-68.5259
11
124.528
21
-68.6477
0
LINE
8
BLACK
6
CONTINUOUS
10
124.528
20
-68.6477
11
124.472
21
-68.783
0
LINE
8
BLACK
6
CONTINUOUS
10
124.472
20
-68.783
11
124.444
21
-68.9267
0
LINE
8
BLACK
6
CONTINUOUS
10
124.444
20
-68.9267
11
124.444
21
-68.9999
0
LINE
8
BLACK
6
CONTINUOUS
10
124.444
20
-68.9999
11
124.444
21
-131.706
0
LINE
8
BLACK
6
CONTINUOUS
10
124.444
20
-131.706
11
124.444
21
-131.706
0
LINE
8
BLACK
6
CONTINUOUS
10
124.444
20
-131.706
11
124.444
21
-131.779
0
LINE
8
BLACK
6
CONTINUOUS
10
124.444
20
-131.779
11
124.472
21
-131.923
0
LINE
8
BLACK
6
CONTINUOUS
10
124.472
20
-131.923
11
124.528
21
-132.058
0
LINE
8
BLACK
6
CONTINUOUS
10
124.528
20
-132.058
11
124.61
21
-132.18
0
LINE
8
BLACK
6
CONTINUOUS
10
124.61
20
-132.18
11
124.713
21
-132.284
0
LINE
8
BLACK
6
CONTINUOUS
10
124.713
20
-132.284
11
124.835
21
-132.365
0
LINE
8
BLACK
6
CONTINUOUS
10
124.835
20
-132.365
11
124.971
21
-132.421
0
LINE
8
BLACK
6
CONTINUOUS
10
124.971
20
-132.421
11
125.114
21
-132.45
0
LINE
8
BLACK
6
CONTINUOUS
10
125.114
20
-132.45
11
125.188
21
-132.45
0
LINE
8
BLACK
6
CONTINUOUS
10
125.188
20
-132.45
11
148.406
21
-132.444
0
LINE
8
BLACK
6
CONTINUOUS
10
148.406
20
-132.444
11
148.406
21
-132.444
0
LINE
8
BLACK
6
CONTINUOUS
10
148.406
20
-132.444
11
148.406
21
-132.444
0
LINE
8
BLACK
6
CONTINUOUS
10
148.406
20
-132.444
11
148.406
21
-132.444
0
LINE
8
BLACK
6
CONTINUOUS
10
148.406
20
-132.444
11
148.479
21
-132.444
0
LINE
8
BLACK
6
CONTINUOUS
10
148.479
20
-132.444
11
148.623
21
-132.415
0
LINE
8
BLACK
6
CONTINUOUS
10
148.623
20
-132.415
11
148.759
21
-132.359
0
LINE
8
BLACK
6
CONTINUOUS
10
148.759
20
-132.359
11
148.88
21
-132.278
0
LINE
8
BLACK
6
CONTINUOUS
10
148.88
20
-132.278
11
148.984
21
-132.174
0
LINE
8
BLACK
6
CONTINUOUS
10
148.984
20
-132.174
11
149.065
21
-132.052
0
LINE
8
BLACK
6
CONTINUOUS
10
149.065
20
-132.052
11
149.121
21
-131.917
0
LINE
8
BLACK
6
CONTINUOUS
10
149.121
20
-131.917
11
149.15
21
-131.773
0
LINE
8
BLACK
6
CONTINUOUS
10
149.15
20
-131.773
11
149.15
21
-131.7
0
LINE
8
BLACK
6
CONTINUOUS
10
149.15
20
-131.7
11
149.15
21
-131.7
0
LINE
8
BLACK
6
CONTINUOUS
10
149.15
20
-131.7
11
149.144
21
-69
0
LINE
8
BLACK
6
CONTINUOUS
10
149.144
20
-69
11
149.144
21
-69
0
LINE
8
BLACK
6
CONTINUOUS
10
149.144
20
-69
11
149.144
21
-69
0
LINE
8
BLACK
6
CONTINUOUS
10
149.144
20
-69
11
149.144
21
-69
0
LINE
8
BLACK
6
CONTINUOUS
10
149.144
20
-69
11
149.144
21
-68.9267
0
LINE
8
BLACK
6
CONTINUOUS
10
149.144
20
-68.9267
11
149.115
21
-68.783
0
LINE
8
BLACK
6
CONTINUOUS
10
149.115
20
-68.783
11
149.059
21
-68.6477
0
LINE
8
BLACK
6
CONTINUOUS
10
149.059
20
-68.6477
11
148.978
21
-68.5259
0
LINE
8
BLACK
6
CONTINUOUS
10
148.978
20
-68.5259
11
148.874
21
-68.4223
0
LINE
8
BLACK
6
CONTINUOUS
10
148.874
20
-68.4223
11
148.752
21
-68.3409
0
LINE
8
BLACK
6
CONTINUOUS
10
148.752
20
-68.3409
11
148.617
21
-68.2848
0
LINE
8
BLACK
6
CONTINUOUS
10
148.617
20
-68.2848
11
148.473
21
-68.2562
0
LINE
8
BLACK
6
CONTINUOUS
10
148.473
20
-68.2562
11
148.4
21
-68.2562
0
LINE
8
BLACK
6
CONTINUOUS
10
148.4
20
-68.2562
11
144.238
21
-68.2562
0
LINE
8
BLACK
6
CONTINUOUS
10
144.238
20
-68.2562
11
144.164
21
-68.2562
0
LINE
8
BLACK
6
CONTINUOUS
10
144.164
20
-68.2562
11
144.021
21
-68.2848
0
LINE
8
BLACK
6
CONTINUOUS
10
144.021
20
-68.2848
11
143.885
21
-68.3409
0
LINE
8
BLACK
6
CONTINUOUS
10
143.885
20
-68.3409
11
143.763
21
-68.4223
0
LINE
8
BLACK
6
CONTINUOUS
10
143.763
20
-68.4223
11
143.66
21
-68.5259
0
LINE
8
BLACK
6
CONTINUOUS
10
143.66
20
-68.5259
11
143.578
21
-68.6477
0
LINE
8
BLACK
6
CONTINUOUS
10
143.578
20
-68.6477
11
143.522
21
-68.783
0
LINE
8
BLACK
6
CONTINUOUS
10
143.522
20
-68.783
11
143.494
21
-68.9267
0
LINE
8
BLACK
6
CONTINUOUS
10
143.494
20
-68.9267
11
143.494
21
-68.9999
0
LINE
8
BLACK
6
CONTINUOUS
10
143.494
20
-68.9999
11
143.494
21
-72.9687
0
LINE
8
BLACK
6
CONTINUOUS
10
143.494
20
-72.9687
11
143.479
21
-73.0041
0
LINE
8
BLACK
6
CONTINUOUS
10
143.479
20
-73.0041
11
143.444
21
-73.0187
0
LINE
8
BLACK
6
CONTINUOUS
10
143.444
20
-73.0187
11
129.95
21
-73.0187
0
LINE
8
BLACK
6
CONTINUOUS
10
129.95
20
-73.0187
11
129.915
21
-73.0041
0
LINE
8
BLACK
6
CONTINUOUS
10
129.915
20
-73.0041
11
129.9
21
-72.9687
0
LINE
8
BLACK
6
CONTINUOUS
10
129.9
20
-72.9687
11
129.9
21
-68.9999
0
LINE
8
BLACK
6
CONTINUOUS
10
129.9
20
-68.9999
11
129.9
21
-68.9999
0
LINE
8
BLACK
6
CONTINUOUS
10
129.9
20
-68.9999
11
129.9
21
-68.9999
0
LINE
8
BLACK
6
CONTINUOUS
10
129.9
20
-68.9999
11
129.9
21
-68.9999
0
LINE
8
BLACK
6
CONTINUOUS
10
129.9
20
-68.9999
11
129.9
21
-68.9267
0
LINE
8
BLACK
6
CONTINUOUS
10
129.9
20
-68.9267
11
129.871
21
-68.783
0
LINE
8
BLACK
6
CONTINUOUS
10
129.871
20
-68.783
11
129.815
21
-68.6477
0
LINE
8
BLACK
6
CONTINUOUS
10
129.815
20
-68.6477
11
129.734
21
-68.5258
0
LINE
8
BLACK
6
CONTINUOUS
10
129.734
20
-68.5258
11
129.63
21
-68.4222
0
LINE
8
BLACK
6
CONTINUOUS
10
129.63
20
-68.4222
11
129.509
21
-68.3408
0
LINE
8
BLACK
6
CONTINUOUS
10
129.509
20
-68.3408
11
129.373
21
-68.2848
0
LINE
8
BLACK
6
CONTINUOUS
10
129.373
20
-68.2848
11
129.23
21
-68.2562
0
LINE
8
BLACK
6
CONTINUOUS
10
129.23
20
-68.2562
11
129.156
21
-68.2562
0
LINE
8
BLACK
6
CONTINUOUS
10
129.156
20
-68.2562
11
125.188
21
-68.2562
  0
ENDSEC
  0
EOF
