<?xml version="1.0" standalone="no"?>
 <!DOCTYPE svg PUBLIC "-//W3C//DTD SVG 1.1//EN" 
 "http://www.w3.org/Graphics/SVG/1.1/DTD/svg11.dtd"> 
<svg
  xmlns:svg="http://www.w3.org/2000/svg"
  xmlns="http://www.w3.org/2000/svg"
  xmlns:xlink="http://www.w3.org/1999/xlink"
  version="1.1"
  width="24.8920mm" height="64.3890mm" viewBox="0.0000 0.0000 24.8920 64.3890">
<title>SVG Image created as cover-Edge_Cuts.svg date 2023/04/26 14:59:53 </title>
  <desc>Image generated by PCBNEW </desc>
<g style="fill:#000000; fill-opacity:1.0000;stroke:#000000; stroke-opacity:1.0000;
stroke-linecap:round; stroke-linejoin:round;"
 transform="translate(0 0) scale(1 1)">
</g>
<g style="fill:#000000; fill-opacity:0.0; 
stroke:#000000; stroke-width:0.0000; stroke-opacity:1; 
stroke-linecap:round; stroke-linejoin:round;">
</g>
<g style="fill:#000000; fill-opacity:0.0; 
stroke:#000000; stroke-width:0.1000; stroke-opacity:1; 
stroke-linecap:round; stroke-linejoin:round;">
<path d="M0.0500 63.5500 A0.7938 0.7938 0.0 0 0 0.8438 64.3437" />
<path d="M19.1000 4.8125
L19.1000 0.8438
" />
<path d="M0.0500 0.8438
L0.0500 63.5500
" />
<path d="M19.8938 0.0500
L24.0562 0.0500
" />
<path d="M0.8438 64.3438
L24.0624 64.3375
" />
<path d="M24.8499 0.8438 A0.7938 0.7938 0.0 0 0 24.0562 0.0500" />
<path d="M24.8562 63.5438
L24.8499 0.8438
" />
<path d="M5.6063 4.8125
L19.1000 4.8125
" />
<path d="M5.6062 0.8437 A0.7937 0.7937 0.0 0 0 4.8125 0.0500" />
<path d="M19.8938 0.0500 A0.7938 0.7938 0.0 0 0 19.1000 0.8438" />
<path d="M24.0624 64.3375 A0.7938 0.7938 0.0 0 0 24.8562 63.5438" />
<path d="M5.6063 0.8438
L5.6063 4.8125
" />
<path d="M4.8125 0.0500
L0.8438 0.0500
" />
<path d="M0.8438 0.0500 A0.7938 0.7938 0.0 0 0 0.0500 0.8438" />
<circle cx="22.2750" cy="60.3750" r="1.0700" /> 
<circle cx="2.4312" cy="60.3750" r="1.0700" /> 
<circle cx="2.4312" cy="2.4312" r="1.0700" /> 
<circle cx="22.2750" cy="2.4312" r="1.0700" /> 
<g >
</g>
<g >
</g>
<g >
</g>
<g >
</g>
<g >
</g>
<g >
</g>
<g >
</g>
</g> 
</svg>
